<svg width="28" height="28" viewBox="0 0 28 28" fill="none" xmlns="http://www.w3.org/2000/svg">
<path d="M19.8164 0C24.3359 0 28 3.66406 28 8.18359C27.9999 10.2677 27.2194 12.1685 25.9365 13.6133C27.2194 15.058 27.9999 16.9589 28 19.043C28 23.5625 24.3359 27.2266 19.8164 27.2266C17.5409 27.2265 15.4832 26.297 14 24.7979C12.5168 26.297 10.4591 27.2265 8.18359 27.2266C3.66406 27.2266 0 23.5625 0 19.043C0.000101947 16.9591 0.779897 15.058 2.0625 13.6133C0.779911 12.1686 6.3214e-05 10.2674 0 8.18359C0 3.66406 3.66406 0 8.18359 0C10.4588 6.90169e-05 12.5168 0.92892 14 2.42773C15.4832 0.928919 17.5412 7.18727e-05 19.8164 0Z" fill="#DAA8EF"/>
</svg>
