<svg width="19" height="18" viewBox="0 0 19 18" fill="none" xmlns="http://www.w3.org/2000/svg">
<path d="M4.54002 15.4897C3.55157 15.9895 2.24745 15.5742 1.53236 14.4933C0.769584 13.3399 0.966314 11.8656 1.97161 11.2008L4.54002 15.4897ZM6.31327 14.3169C5.32477 14.8171 4.02078 14.4015 3.30561 13.3205C2.54292 12.1673 2.73965 10.6931 3.74405 10.0286L6.31327 14.3169ZM8.08652 13.1442C7.09806 13.6441 5.79396 13.2286 5.07886 12.1477C4.31608 10.9944 4.51281 9.52012 5.51811 8.85525L8.08652 13.1442Z" fill="#FF4802"/>
<path d="M15.4326 12.9677C15.909 12.5312 16.649 12.5635 17.0856 13.0398C17.2872 13.2599 17.3872 13.5361 17.3912 13.8128C17.6665 13.8408 17.933 13.9645 18.1346 14.1846C18.5712 14.6609 18.5389 15.4009 18.0625 15.8375C17.8225 16.0574 17.5156 16.1583 17.2142 16.1433C17.2027 16.4446 17.0763 16.7413 16.8364 16.9611C16.3601 17.3976 15.62 17.3654 15.1835 16.889C14.982 16.6692 14.8813 16.3932 14.8771 16.1167C14.6021 16.0885 14.3359 15.9641 14.1344 15.7443C13.6979 15.2679 13.7302 14.5279 14.2065 14.0913C14.4461 13.8717 14.7525 13.7709 15.0534 13.7855C15.0649 13.4842 15.1928 13.1875 15.4326 12.9677Z" fill="#DAA8EF"/>
<path d="M17.0811 3.49559C16.3517 4.74852 14.9701 5.38046 13.6444 5.1967L13.8106 5.29349C14.7268 5.82684 15.0276 7.02274 14.481 7.96185L13.7382 9.23792L12.4933 8.51322C11.5772 7.97988 11.2773 6.78445 11.8237 5.84535L12.12 5.33644C11.05 6.43275 9.35939 6.7204 8.00655 5.93283C8.73621 4.67957 10.1181 4.04788 11.4442 4.23221L11.2762 4.13444C10.3601 3.60103 10.0601 2.40565 10.6066 1.46657L11.3495 0.190501L12.5944 0.915205C13.5104 1.44867 13.8101 2.64484 13.2634 3.58391L12.9696 4.0886C14.0398 2.99466 15.7295 2.70871 17.0811 3.49559Z" fill="#3057A7"/>
<path d="M4.00327 5.50447C5.47721 5.50447 6.67207 4.30961 6.67207 2.83567C6.67207 1.36173 5.47721 0.16687 4.00327 0.16687C2.52934 0.16687 1.33447 1.36173 1.33447 2.83567C1.33447 4.30961 2.52934 5.50447 4.00327 5.50447Z" fill="#EDCE18"/>
</svg>
